<?xml version="1.0" standalone="no"?>
<!DOCTYPE svg PUBLIC "-//W3C//DTD SVG 20010904//EN"
 "http://www.w3.org/TR/2001/REC-SVG-20010904/DTD/svg10.dtd">
<svg version="1.0" xmlns="http://www.w3.org/2000/svg"
 width="260.000000pt" height="260.000000pt" viewBox="0 0 260.000000 260.000000"
 preserveAspectRatio="xMidYMid meet">
<metadata>
Created by potrace 1.11, written by Peter Selinger 2001-2013
</metadata>
<g transform="translate(0.000000,260.000000) scale(0.100000,-0.100000)"
fill="#000000" stroke="none">
<path d="M243 2540 c-62 -14 -132 -71 -166 -135 l-22 -40 0 -1065 c0 -1019 1
-1066 19 -1100 26 -49 74 -98 121 -123 l40 -22 1065 0 1065 0 40 22 c47 25 95
74 121 123 18 34 19 81 19 1100 0 1008 -1 1067 -18 1098 -34 62 -86 110 -143
132 -54 20 -71 20 -1082 19 -565 -1 -1042 -4 -1059 -9z"/>
</g>
</svg>
